<svg xmlns="http://www.w3.org/2000/svg" xmlns:xlink="http://www.w3.org/1999/xlink"><defs><symbol id="apply" viewBox="0 0 60 60"><path d="M25 32h-9v-9h9v5m0 18h-9v-9h9v5m-8.51-28.633L20.123 17l7-7M47 35.31L34 19.816v20.225l6.5-2.366L43.894 47M35 58.562A28.979 28.979 0 1030 59" vector-effect="non-scaling-stroke" fill="none" stroke="currentColor" stroke-linecap="round" stroke-linejoin="round" stroke-width="2"/></symbol><symbol id="arrow-down-outline" viewBox="0 0 40 40"><g fill="none" stroke="currentColor" stroke-width="2" stroke-linecap="round" stroke-linejoin="round"><path d="M24.957 24.957L20 29.914l-4.957-4.957M20 10.045v16.171" vector-effect="non-scaling-stroke"/><path d="M2.244 23.088C3.707 31.539 11.102 38 20 38c9.955 0 18-8.045 18-18S29.955 2 20 2 2 10.045 2 20" vector-effect="non-scaling-stroke"/></g></symbol><symbol id="arrow-down" viewBox="0 0 24 24"><path fill="none" stroke="currentColor" stroke-linecap="round" stroke-linejoin="round" stroke-width="2" d="M12 1v17m7-2l-7 7-7-7" vector-effect="non-scaling-stroke"/></symbol><symbol id="arrow-left" viewBox="0 0 24 24"><path fill="none" stroke="currentColor" stroke-linecap="round" stroke-linejoin="round" stroke-width="2" d="M23 12H6m2 7l-7-7 7-7" vector-effect="non-scaling-stroke"/></symbol><symbol id="arrow-right-long" viewBox="0 0 48 48"><path fill-rule="evenodd" clip-rule="evenodd" d="M39.842 23.574A1.412 1.412 0 0138.445 25l-37.019.383a1.412 1.412 0 01-.029-2.824l37.019-.382a1.412 1.412 0 011.426 1.397z"/><path fill-rule="evenodd" clip-rule="evenodd" d="M36.124 13.428a1.412 1.412 0 011.996-.03l9.452 9.177a1.412 1.412 0 010 2.026l-9.452 9.176a1.412 1.412 0 01-1.967-2.025l8.409-8.164-8.409-8.163a1.412 1.412 0 01-.03-1.997z"/></symbol><symbol id="arrow-right-outline" viewBox="0 0 40 40"><g fill="none" stroke="currentColor" stroke-width="2" stroke-linecap="round" stroke-linejoin="round"><path d="M24.957 15.043L29.914 20l-4.957 4.957M10.045 20h16.171" vector-effect="non-scaling-stroke"/><path d="M23.088 37.756C31.539 36.294 38 28.898 38 20c0-9.955-8.045-18-18-18S2 10.045 2 20s8.045 18 18 18" vector-effect="non-scaling-stroke"/></g></symbol><symbol id="arrow-right" viewBox="0 0 24 24"><path fill="none" stroke="currentColor" stroke-linecap="round" stroke-linejoin="round" stroke-width="2" d="M1 12h17m-2-7l7 7-7 7" vector-effect="non-scaling-stroke"/></symbol><symbol id="arrow-up" viewBox="0 0 24 24"><path fill="none" stroke="currentColor" stroke-linecap="round" stroke-linejoin="round" stroke-width="2" d="M12 23V6M5 8l7-7 7 7" vector-effect="non-scaling-stroke"/></symbol><symbol id="artificial-intelligence" viewBox="0 0 59.97 59.97"><path fill="none" stroke="currentColor" stroke-linecap="round" stroke-linejoin="round" stroke-width="2" vector-effect="non-scaling-stroke" d="M34.98 58.53a29 29 0 10-5 .45m.35-20.76V14.74a6.37 6.37 0 00-6.18-6.53 6.37 6.37 0 00-6.17 6.53 6.84 6.84 0 00.24 1.7"/><path fill="none" stroke="currentColor" stroke-linecap="round" stroke-linejoin="round" stroke-width="2" vector-effect="non-scaling-stroke" d="M16.47 40.47a7.78 7.78 0 00-.39 2.43 7.33 7.33 0 007.12 7.53 7.34 7.34 0 007.13-7.53M10.82 32.04a5.41 5.41 0 00-.84 3.49 5.8 5.8 0 006.54 4.92m1.68-24.01a7.29 7.29 0 00-8.38 6 7.28 7.28 0 006.44 8m1.95-14l3.87 2.19m-5.61 21.85l2.64-1.05m.47-2.22v4.86m2.93-25.97v4.86m7.56 4.83H25.2"/><path fill="none" stroke="currentColor" stroke-linecap="round" stroke-linejoin="round" stroke-width="2" vector-effect="non-scaling-stroke" d="M36.77 47.85a2 2 0 01-.74-2.75 2.007 2.007 0 013.48 2m.78-9.68a2 2 0 11-2.46-1.44m3.08-23a2 2 0 11-2.46-1.42m-1.85 19.7a2 2 0 111.38-2.46m6.45-11.42a2 2 0 11-1.45 2.46M22.8 33.7a2.007 2.007 0 113.48 2 2 2 0 01-2.74.73M19.03 23.4a2 2 0 11-2.45-1.42m28.21 14.38a2 2 0 112.74-.73m-3.55-7.05a2 2 0 111.42-2.45m-17.96-8.72h7.02l2.72-2.13m-6.56 13.63h3.51m-3.57-6.8h7.94l3.15 3.22M27.79 42.6h4.92l3.34 2.02m-5.66-9.74h2.98l2.77 1.97m7.01 6.11l2.67-2.68M22.48 28.42l2.67-2.67"/></symbol><symbol id="attraction" viewBox="0 0 80 80"><g fill="none" stroke="currentColor" stroke-linecap="round" stroke-linejoin="round" stroke-width="2"><path d="M45.743 40h9.098V21.708A14.531 14.531 0 0039.993 7.472" vector-effect="non-scaling-stroke"/><path d="M25.146 40h9.098V23.256c0-3.936 3.402-5.164 5.75-5.164 2.347 0 5.749 1.228 5.749 5.164V36.69m-5.75-29.22a14.526 14.526 0 00-14.847 14.237v14.956m0-4.67h5.817m14.78 0h5.817" vector-effect="non-scaling-stroke"/><path d="M39.687 32.328l-1.081 4.937h2.775l-1.32 5.19m-16.61 14.13a3.11 3.11 0 113.109 3.108 2.933 2.933 0 01-.907-.133m24.505-2.976a3.11 3.11 0 113.175 3.11 2.931 2.931 0 01-.907-.134m-31.309 8.459v-3.43a9.617 9.617 0 015.443-1.547 10.67 10.67 0 012.388.267m29.721 4.71v-3.43a9.616 9.616 0 00-5.336-1.547 10.35 10.35 0 00-2.454.28M33.55 54.917a6.485 6.485 0 018.602-7.355 6.483 6.483 0 011.763 11.18 6.482 6.482 0 01-8.417-.343M50.986 72.02v-4.763a19.447 19.447 0 00-11.073-3.162 19.447 19.447 0 00-11.072 3.162v4.763" vector-effect="non-scaling-stroke"/><path d="M46.664 78.079a38.685 38.685 0 0024.424-15.325A38.697 38.697 0 0063.88 9.72a38.682 38.682 0 00-53.287 4.903 38.697 38.697 0 002.59 53.459 38.682 38.682 0 0026.81 10.61" vector-effect="non-scaling-stroke"/></g></symbol><symbol id="bank-coin" viewBox="0 0 60 60"><g fill="none" stroke="currentColor" stroke-linecap="round" stroke-linejoin="round" stroke-width="2"><path d="M16 20h31l1-2-18-7-18 7m5 19.1V24h4v9m18 4.1V24h4v9M10.781 44H14v-3h32v3h3.219M35 58.562A28.979 28.979 0 1030 59m-5-30h5.25M25 32h5.25" vector-effect="non-scaling-stroke"/><path d="M34 32.25A3.75 3.75 0 0130.25 36a3.75 3.75 0 01-3.75-3.75v-3.5A3.75 3.75 0 0130.25 25 3.75 3.75 0 0134 28.75" vector-effect="non-scaling-stroke"/></g></symbol><symbol id="bank" viewBox="0 0 60 60"><path d="M16 20h31l1-2-18-7-18 7m5 19.1V24h4v9m18 4.1V24h4v9M10.781 44H14v-3h32v3h3.219M35 58.562A28.979 28.979 0 1030 59M25 .25" vector-effect="non-scaling-stroke" fill="none" stroke="currentColor" stroke-linecap="round" stroke-linejoin="round" stroke-width="2"/></symbol><symbol id="banking" viewBox="0 0 60 60"><g fill="none" stroke="currentColor" stroke-linecap="round" stroke-linejoin="round" stroke-width="2"><path d="M27 11h6m-11.868 4H43v35a3 3 0 01-3 3H20a3 3 0 01-3-3V10a3 3 0 013-3h20a3 3 0 013 3v.781M17.132 48H39m-4 10.562A28.979 28.979 0 1030 59m-7.5-30h7.25m-7.25 4h7.25" vector-effect="non-scaling-stroke"/><path d="M35 34a5 5 0 01-5 5 5 5 0 01-5-5v-6a5 5 0 015-5 5 5 0 015 5" vector-effect="non-scaling-stroke"/></g></symbol><symbol id="book" viewBox="0 0 60 60"><g fill="none" stroke="currentColor" stroke-linecap="round" stroke-linejoin="round" stroke-width="2"><path d="M48 43H12m18-27v-.26a3 3 0 00-3.65-2.929L12 16v24l16.012-1.78A1.79 1.79 0 0130 40" vector-effect="non-scaling-stroke"/><path d="M30 16v-.26a3 3 0 013.65-2.929L48 16v24l-14.272-1.068M35 58.562A28.979 28.979 0 1030 59" vector-effect="non-scaling-stroke"/></g></symbol><symbol id="briefcase" viewBox="0 0 60 60"><path d="M48 32v12H12V20h36v8l-16 3.556V35h-4v-3.444l-12.936-2.875m0 0L28 31.556M35 17v-2a2 2 0 00-2-2h-6a2 2 0 00-2 2v2m10 41.562A28.979 28.979 0 1030 59" vector-effect="non-scaling-stroke" fill="none" stroke="currentColor" stroke-linecap="round" stroke-linejoin="round" stroke-width="2"/></symbol><symbol id="bulb" viewBox="0 0 60 60"><path d="M40 27a10 10 0 10-16.161 7.865A2.915 2.915 0 0125 37.15V41h10v-3.852a2.901 2.901 0 011.153-2.276 10.072 10.072 0 002.206-2.39M25 46l10-1m-7.496 4.75l4.992-.5M30.007 7v3m-19.801 8.424l2.598 1.5M10.2 41.284l2.598-1.5m36.996 1.511l-2.598-1.5M49.8 18.436l-2.598 1.5M35 58.562A28.979 28.979 0 1030 59" vector-effect="non-scaling-stroke" fill="none" stroke="currentColor" stroke-linecap="round" stroke-linejoin="round" stroke-width="2"/></symbol><symbol id="business-registry" viewBox="0 0 60 60"><g fill="none" stroke="currentColor" stroke-linecap="round" stroke-linejoin="round" stroke-width="2"><path d="M32 37h14m-14 4h10m-6-21h14m-14 4h10M35 58.562A28.979 28.979 0 1030 59" vector-effect="non-scaling-stroke"/><path d="M13 23v-8h18v11h-5m-1-15h-6v4m8 28H9V32h18v7m-6-11h-6v4" vector-effect="non-scaling-stroke"/></g></symbol><symbol id="calendar" viewBox="0 0 24 24"><path d="M6 3v2H3v16h18V5h-3V3h-2v2H8V3H6zM5 7h14v2H5V7zm0 4h14v8H5v-8z"/></symbol><symbol id="car" viewBox="0 0 80 80"><g fill="none" stroke="currentColor" stroke-linecap="round" stroke-width="2"><path d="M46.663 78.079a38.686 38.686 0 10-6.67.6m-26.68-44.022h-1.72c-.508 0-.948-1.334-.948-2.054a3.107 3.107 0 011.694-1.948h2.308" vector-effect="non-scaling-stroke"/><path d="M66.673 34.657h1.721c.507 0 .947-1.334.947-2.054a3.08 3.08 0 00-1.734-1.948H65.34M31.523 45.33h16.941M17.315 34.657l5.203-11.232c1.094-2.201 2.201-3.442 4.829-3.442h25.346c2.668 0 3.735 1.241 4.83 3.442l4.815 11.232M27.987 53.333H13.954v-14.42a267.284 267.284 0 0152.026 0v14.42H33.323m10.672-28.427L32.99 32.429M47.464 27.8L40.5 32.43M22.718 57.335v1.881c0 .734-.747 1-2.308 1h-2.575c-1.547 0-2.307-.266-2.307-1v-1.88m49.144-.001v1.881c0 .734-.76 1-2.307 1H59.79c-1.56 0-2.308-.266-2.308-1v-1.88m-1.387-13.341a2.668 2.668 0 11.987 3.642m-33.884-.08a2.668 2.668 0 11.787-3.682" vector-effect="non-scaling-stroke"/></g></symbol><symbol id="challenge" viewBox="0 0 80 80"><g fill="none" stroke="currentColor" stroke-linecap="round" stroke-linejoin="round" stroke-width="2"><path d="M46.744 77.397a38 38 0 10-6.552.602M18.978 63.048V21.747h8.215v6.984h8.53v-6.985h8.95v6.985h8.53v-6.985h8.217v41.302" vector-effect="non-scaling-stroke"/><path d="M46.194 51.95v-8.308a6.002 6.002 0 00-12.003 0v8.308h6.97" vector-effect="non-scaling-stroke"/></g></symbol><symbol id="check" viewBox="0 0 24 24"><path d="M4 12.5l5 5 5.5-5.5m5-5l-2 2" vector-effect="non-scaling-stroke" fill="none" stroke="currentColor" stroke-width="2" stroke-linecap="round" stroke-linejoin="round"/></symbol><symbol id="checkbox-check" viewBox="0 0 16 16"><path d="M3.333 7.667L6.666 11l5.667-5.667" vector-effect="non-scaling-stroke" fill="none" stroke="currentColor" stroke-linecap="round" stroke-linejoin="round" stroke-width="2"/></symbol><symbol id="chevron-bottom" viewBox="0 0 12 7"><path d="M10.063.86c.28-.282.75-.282 1.078 0 .28.328.28.796 0 1.078L6.266 6.813c-.141.14-.329.187-.516.187-.234 0-.422-.047-.563-.188L.313 1.938c-.28-.28-.28-.75 0-1.078.329-.28.797-.28 1.079 0L5.75 5.22 10.063.86z" fill="currentColor"/></symbol><symbol id="chevron-left" viewBox="0 0 12 12"><path d="M9.2 10.6c.3.3.3.7 0 1.1-.3.3-.8.3-1.1 0L3.2 6.8c-.1-.2-.2-.4-.2-.6 0-.2 0-.4.2-.5L8.1.8c.3-.3.8-.3 1.1 0 .3.3.3.8 0 1.1L4.8 6.2l4.4 4.4z"/></symbol><symbol id="chevron-right" viewBox="0 0 12 12"><path d="M3.2 1.9C3 1.6 3 1.1 3.2.8c.3-.3.8-.3 1.1 0l4.9 4.9c.1.1.2.3.2.5s0 .4-.2.5l-4.9 4.9c-.3.3-.8.3-1.1 0-.3-.3-.3-.8 0-1.1l4.4-4.3-4.4-4.3z"/></symbol><symbol id="chevron-top" viewBox="0 0 12 7"><path d="M1.39 6.688c-.28.28-.75.28-1.077 0-.282-.329-.282-.797 0-1.079L5.188.734c.14-.14.328-.187.562-.187.188 0 .375.047.516.187L11.14 5.61c.28.282.28.75 0 1.079-.329.28-.797.28-1.079 0L5.75 2.327l-4.36 4.36z" fill="currentColor"/></symbol><symbol id="circle" viewBox="0 0 53 54"><path d="M30.606 51.882c13.714-2.39 22.876-15.478 20.486-29.193C48.702 8.975 35.614-.187 21.9 2.203 8.185 4.593-.977 17.68 1.413 31.396 3.518 43.46 14.046 52.28 26.28 52.224" vector-effect="non-scaling-stroke" fill="none" stroke="currentColor" stroke-linecap="round" stroke-width="2"/></symbol><symbol id="close" viewBox="0 0 32 32"><path d="M26.667 26.667L5.333 5.333m0 21.334l7.913-7.913m5.508-5.508l7.913-7.913" stroke="currentColor" stroke-width="2" stroke-linecap="round" stroke-linejoin="round" vector-effect="non-scaling-stroke"/></symbol><symbol id="court" viewBox="0 0 60 60"><path d="M15 14h13m17 0H32m-9 22c-2.002 2.002-4.376 4-7 4s-4.998-1.998-7-4l7-17.85L21 32m30 4c-2.002 2.002-4.376 4-7 4s-4.998-1.998-7-4l7-17.85L49 32M30 46V20m7 28l-1.371-2H24.754L23 48m9-34a2 2 0 11-2-2m5 46.562A28.979 28.979 0 1030 59" vector-effect="non-scaling-stroke" fill="none" stroke="currentColor" stroke-linecap="round" stroke-linejoin="round" stroke-width="2"/></symbol><symbol id="data" viewBox="0 0 60 60"><path d="M35 58.562A28.979 28.979 0 1030 59M13 28a3 3 0 113-3m5-3v6m8 0a3 3 0 113-3m13 3a3 3 0 113-3m-11-3v6m-21 4v6m-5-6v6m21-6v6m-8 0a3 3 0 113-3m18 3a3 3 0 113-3m-11-3v6M18 18a3 3 0 113-3m5-3v6m8 0a3 3 0 113-3m5-3v6m-3 30a3 3 0 113-3m-11 3v-6m-15 6v-6m7 6a3 3 0 113-3" vector-effect="non-scaling-stroke" fill="none" stroke="currentColor" stroke-linecap="round" stroke-linejoin="round" stroke-width="2"/></symbol><symbol id="digital-id" viewBox="0 0 60 60"><g fill="none" stroke="currentColor" stroke-linecap="round" stroke-linejoin="round" stroke-width="2"><path d="M17.317 39.948a11.994 11.994 0 0010.666-11.926m2.078 11.908a7.681 7.681 0 01-1.528-1.997M12.405 24.354a16.003 16.003 0 0131.467 5.559M21.973 42.844a16.016 16.016 0 001.881-.914 2.62 2.62 0 013.16.456 15.839 15.839 0 001.826 1.592" vector-effect="non-scaling-stroke"/><path d="M31.466 34.786a3.699 3.699 0 01-.106-2.388 15.771 15.771 0 00.62-4.141 4.107 4.107 0 00-3.271-4.171 4.003 4.003 0 00-4.726 3.936 8.01 8.01 0 01-7.922 8 4.184 4.184 0 00-1.685.387" vector-effect="non-scaling-stroke"/><path d="M35.76 30.943a19.477 19.477 0 00.213-2.315 8.227 8.227 0 00-7.3-8.577 8.009 8.009 0 00-8.69 7.97 4.004 4.004 0 01-3.952 4 8.58 8.58 0 00-3.336.73" vector-effect="non-scaling-stroke"/><path d="M39.897 30.002q.054-.625.074-1.248a12.181 12.181 0 00-10.961-12.69q-.517-.043-1.027-.043a12.013 12.013 0 00-12 12 12.574 12.574 0 00-3.965.693M46.197 44A6.002 6.002 0 1147 41H35m0 17.562A28.979 28.979 0 1030 59" vector-effect="non-scaling-stroke"/></g></symbol><symbol id="diploma" viewBox="0 0 60 60"><path d="M24 47h-8V15m24 7.438V41M16 15c0-2.21.895-4 2-4 2 0 3 1.79 3 4 0 1.38 0 4-1 4h23.118C44 19 45 16.38 45 15c0-2.21-1-4-3-4H24.062m-2.944 13h14m-14 4h14m-14 4h14M36 39a3 3 0 11-3-3m-5 13l3-4m4 0l3 4m-3 9.562A28.979 28.979 0 1030 59" vector-effect="non-scaling-stroke" fill="none" stroke="currentColor" stroke-linecap="round" stroke-linejoin="round" stroke-width="2"/></symbol><symbol id="doc" viewBox="0 0 60 60"><g fill="none" stroke="currentColor" stroke-linecap="round" stroke-linejoin="round" stroke-width="2"><path d="M42 48H18V12h18l6 6v26m-5-20H23m14 6H23m10 6H23" vector-effect="non-scaling-stroke"/><path d="M36 12v6h2m-3 40.562A28.979 28.979 0 1030 59" vector-effect="non-scaling-stroke"/></g></symbol><symbol id="download" viewBox="0 0 24 24"><path d="M11 4v10.586l-3.293-3.293-1.414 1.414L12 18.414l5.707-5.707-1.414-1.414L13 14.586V4h-2zM2 17v5h20v-5h-2v3H4v-3H2z"/></symbol><symbol id="e-education" viewBox="0 0 60 60"><g fill="none" stroke="currentColor" stroke-linecap="round" stroke-linejoin="round" stroke-width="2"><path d="M35.197 30A6.002 6.002 0 1136 27H24m24 16H12" vector-effect="non-scaling-stroke"/><path d="M30 16v-.26a3 3 0 00-3.65-2.929L12 16v24l16.012-1.78A1.79 1.79 0 0130 40" vector-effect="non-scaling-stroke"/><path d="M30 16v-.26a3 3 0 013.65-2.929L48 16v24l-14.272-1.068M35 58.562A28.979 28.979 0 1030 59" vector-effect="non-scaling-stroke"/></g></symbol><symbol id="e-police" viewBox="0 0 60 60"><g fill="none" stroke="currentColor" stroke-linecap="round" stroke-linejoin="round" stroke-width="2"><path d="M44.808 16.703c.447 6.156 1.128 11.554-.108 15.265C41.412 41.844 30 47.792 30 47.792s-11.412-5.948-14.7-15.824c-1.236-3.71-.555-9.109-.108-15.265L30 13l10.545 2.637" vector-effect="non-scaling-stroke"/><path d="M15.192 20.703L30 17l10.948 2.738M35.197 33A6.002 6.002 0 1136 30H24m11 28.562A28.979 28.979 0 1030 59" vector-effect="non-scaling-stroke"/></g></symbol><symbol id="e-prescription" viewBox="0 0 60 60"><g fill="none" stroke="currentColor" stroke-linecap="round" stroke-linejoin="round" stroke-width="2"><path d="M38 48H22a4 4 0 01-4-4V23l6-6h12l6 6v21m-5-30v-4H23v4m12 44.562A28.979 28.979 0 1030 59" vector-effect="non-scaling-stroke"/><path d="M29 24h-2v5h-5v6h5v5h6v-5h5v-6h-5v-5" vector-effect="non-scaling-stroke"/></g></symbol><symbol id="e-residency" viewBox="0 0 60 60"><g fill="none" stroke="currentColor" stroke-linecap="round" stroke-width="2"><path d="M38 35c4.292 1.184 6 3 6 3v8H16v-8s1.708-1.816 6-3m13 23.562A28.979 28.979 0 1030 59" stroke-linejoin="round" vector-effect="non-scaling-stroke"/><path d="M39.528 27.5A11.003 11.003 0 1141 22a30.995 30.995 0 01-10 2 16.07 16.07 0 01-8.111-2" stroke-linejoin="round" vector-effect="non-scaling-stroke"/><path stroke-miterlimit="10" d="M27 17v1m6-1v1m-3 19v1m0 4v4" vector-effect="non-scaling-stroke"/></g></symbol><symbol id="e" viewBox="0 0 60 60"><path d="M36.063 33.5A7.002 7.002 0 1137 30H23m7.007-20v3m-17.324 6.994l2.598 1.5m-2.605 18.5l2.598-1.5M29.993 50v-3m17.324-6.994l-2.598-1.5m2.605-18.5l-2.598 1.5M35 58.562A28.979 28.979 0 1030 59" vector-effect="non-scaling-stroke" fill="none" stroke="currentColor" stroke-linecap="round" stroke-linejoin="round" stroke-width="2"/></symbol><symbol id="eas" viewBox="0 0 99 30"><path d="M93.08 25.536a1.11 1.11 0 00-.62.138 1.08 1.08 0 00-.435.453h-.084v-.543h-.47v3.102h.495v-2.001c.023-.443.577-.723.943-.723.51 0 .896.27.896.783v1.939h.493v-1.982c0-.82-.5-1.166-1.218-1.166zM20.405 12.573a.38.38 0 00-.511 0l-1.418 1.389a.352.352 0 000 .5l1.418 1.389a.366.366 0 00.394.078.356.356 0 00.116-.078l1.42-1.389a.36.36 0 000-.5l-1.42-1.389zm4.51 4.391a.382.382 0 00-.51 0l-1.418 1.389a.352.352 0 000 .5l1.418 1.389a.37.37 0 00.255.105.367.367 0 00.255-.105l1.418-1.389a.352.352 0 000-.5l-1.418-1.389zm2.47-2.752c.001.094.04.184.108.25l1.417 1.389a.366.366 0 00.394.078.356.356 0 00.117-.078l1.42-1.389a.357.357 0 000-.5l-1.42-1.389a.358.358 0 00-.255-.105.366.366 0 00-.256.105l-1.417 1.389a.352.352 0 00-.1.252l-.008-.002zm51.47 14.472h3.065v-.44h-2.554v-1.572h2.357v-.453h-2.357v-1.486h2.554v-.453h-3.058l-.007 4.404zm10.268-3.175c-.958 0-1.601.65-1.601 1.636 0 .986.633 1.622 1.601 1.622s1.614-.639 1.614-1.642-.643-1.614-1.606-1.614l-.008-.002zm0 2.847c-.585 0-1.085-.465-1.085-1.21 0-.802.51-1.232 1.085-1.232s1.096.43 1.096 1.231c.008.753-.473 1.214-1.088 1.214l-.008-.003zM24.407 11.412a.37.37 0 00.256.105.366.366 0 00.255-.105l1.418-1.389a.352.352 0 000-.5l-1.418-1.389a.367.367 0 00-.51 0l-1.419 1.389a.352.352 0 000 .5l1.418 1.389zm-20.71.768a1.345 1.345 0 00.953.388 1.368 1.368 0 00.952-.388l1.576-1.544a1.316 1.316 0 00.397-.933 1.293 1.293 0 00-.397-.933L5.602 7.226a1.346 1.346 0 00-.952-.388 1.368 1.368 0 00-.953.388L2.12 8.77a1.315 1.315 0 00-.396.933 1.293 1.293 0 00.396.933l1.576 1.544zm95.301 2.59c0-4.254-4.056-4.967-7.407-5.803-2.644-.655-5.313-1.23-5.313-3.53 0-1.804 1.841-3.373 4.853-3.373 2.856 0 5.152.969 6.513 2.222h.585V2.142C97.111 1.096 94.52 0 91.64 0c-4.853 0-7.74 2.43-7.74 5.49 0 4.13 4.029 4.836 7.393 5.62 2.695.627 5.338 1.28 5.338 3.635 0 1.411-1.63 3.162-4.853 3.162-2.508 0-5.686-1.358-7.528-3.215h-.584v2.692c2.4 1.78 4.909 2.588 8.112 2.588 4.554 0 7.221-2.405 7.221-5.202zm-3.87 10.056h.511v-.638h-.51v.638zM5.602 14.482a1.363 1.363 0 00-.952-.386c-.358 0-.7.139-.953.386L.394 17.705a1.31 1.31 0 00-.393.933c0 .35.141.685.393.933l2.347 2.3-.92.903a1.32 1.32 0 00-.416.94 1.298 1.298 0 00.396.95 1.35 1.35 0 00.97.386 1.372 1.372 0 00.959-.41l1.872-1.836 3.308-3.233a1.314 1.314 0 00.396-.933 1.293 1.293 0 00-.396-.933l-3.308-3.223zm.723 4.371l-1.417 1.384a.38.38 0 01-.256.102.374.374 0 01-.255-.102l-1.418-1.391a.35.35 0 01-.107-.25c0-.095.039-.184.107-.25l1.418-1.39a.377.377 0 01.51 0l1.418 1.39a.354.354 0 010 .495v.012zm80.086 5.662h-.488v1.069h-.511v.393h.51v1.809c0 .703.256.9.785.9h.409v-.375h-.317c-.238 0-.401-.078-.401-.485v-1.85h.766v-.392h-.766l.013-1.069zm11.203 1.001a1.738 1.738 0 00-1.145.4v.436h.092a1.393 1.393 0 011.04-.405.82.82 0 01.526.153.79.79 0 01.304.447l-.049.08c-.22.028-.69.1-.901.143-.751.172-1.244.418-1.244 1.056 0 .535.47.936 1.096.936a1.277 1.277 0 001.042-.453h.079v.37h.51v-1.94c-.004-.747-.515-1.215-1.35-1.215v-.008zm.84 2.202v-.012c0 .422-.577.628-.912.628-.47 0-.792-.175-.792-.516 0-.34.256-.513.89-.625.163-.03.553-.09.822-.13l-.008.655zm-3.32.96h.51v-3.102h-.51v3.103zM68.057 26.12h-.087v-.543h-.511v3.103h.529v-1.802c.038-.52.378-.895.766-.895h.437v-.43h-.44a.665.665 0 00-.463.15.64.64 0 00-.229.425l-.002-.008zm1.724 2.56h.498v-3.103h-.498v3.103zM71.294.253l-7.21 18.7v.653h2.106l2.624-6.875h8.46l2.75 6.875h2.3v-.653L74.926.26 71.294.253zM69.56 10.76l2.953-7.676.4-1.231h.11l.427 1.204 3.042 7.713-6.932-.01zm-4.317 14.75a1.134 1.134 0 00-.95.435h-.062v-.37h-.51v4.421h.51v-1.752h.08c.127.33.572.501.92.501.863 0 1.57-.65 1.57-1.659-.002-.946-.613-1.566-1.556-1.566l-.002-.01zm-.105 2.797c-.457 0-.894-.238-.912-.633v-.906a.911.911 0 01.302-.603.949.949 0 01.64-.24c.616 0 1.11.425 1.11 1.164.002.828-.535 1.228-1.137 1.228l-.003-.01zM41.094 1.091a1.325 1.325 0 00-.496-.595 1.367 1.367 0 00-.75-.223H22.262c-.358 0-.7.14-.953.388L9.932 11.815a1.308 1.308 0 00-.394.933c0 .35.141.686.394.933l3.831 3.774-1.685 1.65a1.308 1.308 0 00-.395.934c0 .35.142.686.395.933l5.67 5.555a1.365 1.365 0 001.906 0l1.826-1.789 4.976 4.874c.253.247.595.385.952.385s.7-.138.953-.385l12.174-11.925a1.32 1.32 0 00.395-.934 1.298 1.298 0 00-.395-.935l-6.672-6.535 6.93-6.756a1.292 1.292 0 00.301-1.436zm-11.62 6.488l1.418-1.389a.367.367 0 01.511 0l1.418 1.389a.356.356 0 010 .5l-1.407 1.399a.37.37 0 01-.256.105.367.367 0 01-.255-.105l-1.418-1.389a.352.352 0 010-.5l-.01-.01zm-8.048-2.835a.393.393 0 01.255-.355.414.414 0 01.435.085l2.554 2.502 2.554-2.502a.406.406 0 01.441-.087c.074.03.137.081.182.147a.389.389 0 01.067.22v5.557a.4.4 0 01-.117.28l-2.838 2.778a.403.403 0 01-.286.117.41.41 0 01-.286-.117L21.55 10.59a.394.394 0 01-.12-.28l-.005-5.567zm-4.924 2.835l1.42-1.389a.359.359 0 01.255-.105c.096 0 .188.038.256.105l1.417 1.39a.352.352 0 010 .5l-1.417 1.399a.367.367 0 01-.395.078.356.356 0 01-.116-.078l-1.42-1.389a.359.359 0 010-.5v-.01zm3.35 13.218l-1.417 1.389a.367.367 0 01-.394.078.354.354 0 01-.117-.078l-1.42-1.389a.354.354 0 010-.5l1.42-1.391a.368.368 0 01.511 0l1.418 1.39a.353.353 0 01.105.252.347.347 0 01-.108.25h.003zm.795-3.407h-5.675a.415.415 0 01-.227-.07.403.403 0 01-.171-.41.39.39 0 01.111-.201l2.555-2.502-2.555-2.502a.391.391 0 01.06-.611.415.415 0 01.227-.07h5.673c.107 0 .21.042.286.115l2.835 2.78a.393.393 0 01.12.28.386.386 0 01-.12.28l-2.835 2.78a.418.418 0 01-.286.13h.002zm7.26 6.35a.39.39 0 01-.068.22.402.402 0 01-.415.169.405.405 0 01-.207-.109l-2.554-2.502-2.555 2.502a.41.41 0 01-.61-.067.393.393 0 01-.072-.213v-5.56a.386.386 0 01.12-.28l2.836-2.78a.405.405 0 01.44-.086c.05.02.094.05.132.086l2.838 2.78a.396.396 0 01.117.28l-.002 5.56zm4.924-2.94l-1.417 1.389a.37.37 0 01-.256.105.367.367 0 01-.255-.105l-1.418-1.39a.352.352 0 01-.08-.385.35.35 0 01.08-.115l1.418-1.39a.375.375 0 01.51 0l1.418 1.39a.354.354 0 010 .498v.003zm1.533-9.758a.41.41 0 01.374.244.387.387 0 01-.088.431l-2.554 2.502 2.554 2.502a.393.393 0 01.088.432.41.41 0 01-.374.244h-5.678a.405.405 0 01-.284-.115l-2.838-2.787a.394.394 0 010-.56l2.835-2.78a.418.418 0 01.287-.116l5.678.003zm37.193 15.3c0-.263.243-.448.766-.448a1.175 1.175 0 01.866.38h.146v-.5a2.078 2.078 0 00-1.022-.25c-.85 0-1.259.353-1.259.878 0 1.056 1.949.846 1.949 1.501 0 .318-.255.5-.766.5a1.44 1.44 0 01-1.022-.452h-.164v.47c.35.231.761.356 1.183.358.894 0 1.277-.34 1.277-.888-.005-1.121-1.954-.798-1.954-1.55zm-1.773-1.516h.498v-.638h-.498v.638zm7.18 2.34c-.03-.927-.426-1.647-1.496-1.647-.963 0-1.5.72-1.5 1.604 0 1.098.603 1.646 1.694 1.646.416.006.822-.127 1.152-.375v-.388h-.118c-.306.21-.668.326-1.042.335a1.11 1.11 0 01-.656-.145 1.076 1.076 0 01-.445-.495 1.17 1.17 0 01-.087-.483v-.053h2.499zm-1.491-1.252a.914.914 0 01.666.235.878.878 0 01.284.636h-1.926c.092-.543.391-.86.976-.86v-.01zm-26.624 2.752h3.066v-.422H49.36v-1.572h2.358v-.453H49.36v-1.486h2.554v-.453H48.85v4.386zM62.275 17.6H51.092v-6.856h10.33V8.757h-10.33V2.252h11.203V.26H48.798v19.346h13.477V17.6zm-8.102 7.936a1.106 1.106 0 00-.618.139 1.075 1.075 0 00-.435.452h-.087v-.543h-.467v3.102h.493v-2.001c.023-.443.577-.723.942-.723.511 0 .897.27.897.783v1.939h.5v-1.982c0-.82-.51-1.166-1.226-1.166zm2.661-1.02h-.485v1.068h-.498v.393h.498v1.809c0 .703.242.9.784.9h.409v-.375h-.33c-.237 0-.4-.078-.4-.485l.012-1.85h.766v-.392h-.766l.01-1.069zm4.1 2.65c-.03-.927-.427-1.647-1.497-1.647-.963 0-1.5.72-1.5 1.604 0 1.098.603 1.646 1.694 1.646.416.006.822-.127 1.152-.375v-.388h-.117c-.306.21-.67.326-1.043.335-.229.02-.458-.03-.656-.145a1.076 1.076 0 01-.444-.495 1.17 1.17 0 01-.085-.483v-.053h2.496zm-1.492-1.252a.914.914 0 01.666.235.878.878 0 01.284.636h-1.928c.094-.543.393-.86.978-.86v-.01zm2.68.203h-.082v-.543h-.511v3.102h.529v-1.801c.035-.52.378-.896.766-.896h.437v-.43h-.455a.67.67 0 00-.459.156.644.644 0 00-.226.422v-.01zm21.024.215c0-.263.243-.448.766-.448a1.166 1.166 0 01.864.38h.148v-.5a2.108 2.108 0 00-1.022-.25c-.853 0-1.262.353-1.262.878 0 1.056 1.95.846 1.95 1.501 0 .318-.256.5-.767.5a1.433 1.433 0 01-1.022-.452h-.166v.47c.35.231.761.356 1.183.358.896 0 1.277-.34 1.277-.888 0-1.111-1.949-.788-1.949-1.54v-.01z" fill="currentColor"/></symbol><symbol id="edit" viewBox="0 0 24 24"><path fill-rule="evenodd" clip-rule="evenodd" d="M15.8 2.2L3 15v6h6L21.8 8.2l-6-6zM8.2 19H5v-3.2l8-8 3.2 3.2-8 8zm6.1-12.5L15.8 5 19 8.2l-1.5 1.5-3.2-3.2z"/></symbol><symbol id="egg" viewBox="0 0 60 60"><g fill="none" stroke="currentColor" stroke-linecap="round" stroke-linejoin="round" stroke-width="2"><path d="M35 58.562A28.979 28.979 0 1030 59M18 26c0-6.627 5.373-17 12-17s12 10.373 12 17" vector-effect="non-scaling-stroke"/><path d="M38 50v-1l-6-1v-1.772a3.004 3.004 0 012.133-2.866A13.987 13.987 0 0044 30H16a13.987 13.987 0 009.867 13.362A3.004 3.004 0 0128 46.228V48l-6 1v1" vector-effect="non-scaling-stroke"/></g></symbol><symbol id="email" viewBox="0 0 24 24"><path fill-rule="evenodd" clip-rule="evenodd" d="M2 21V4h20v17H2zM20 6H4v13h16V6zm-1 1.5L12 12 5 7.5V10l7 4.5 7-4.5V7.5z"/></symbol><symbol id="embassy" viewBox="0 0 60 60"><g fill="none" stroke="currentColor" stroke-linecap="round" stroke-linejoin="round" stroke-width="2"><path d="M34.997 58.56a29.014 29.014 0 10-5.003.45m-4.001-28.775H14.577c-4.532 0-7.413-2.391-7.003-6.003.34-3.302 2.911-4.812 5.773-4.652" vector-effect="non-scaling-stroke"/><path d="M17.268 23.291a9.355 9.355 0 014.463-11.115c4.812-2.722 10.755-1.19 13.576 5.392 4.613-2.921 10.596.32 10.206 6.364a4.462 4.462 0 017.233-.17c1.671 2.2.45 6.473-2.821 6.473H33.997" vector-effect="non-scaling-stroke"/><path d="M25.993 25.242l4.002-4.002 4.012 4.002m-4.012-3.091V39m-12.006-2.002v-1.75H42v1.75M14.987 41.01h6.003v6.004h-6.003v-2.001M39 41.01h6.002v6.004H39v-2.001m-12.006-2.011h6.003v6.003h-6.003v-2.001" vector-effect="non-scaling-stroke"/></g></symbol><symbol id="energy" viewBox="0 0 60 60"><path d="M24.964 58.559l4.373-24.061-12.809 2.301L35.036 1.441l-4.373 24.061 12.809-2.301-12.989 24.814M30 1a29.005 29.005 0 00-9.08 56.55m18.16-55.1A29.005 29.005 0 0130 59" vector-effect="non-scaling-stroke" fill="none" stroke="currentColor" stroke-linecap="round" stroke-linejoin="round" stroke-width="2"/></symbol><symbol id="error" viewBox="0 0 60 60"><path d="M34.997 58.559a29.014 29.014 0 10-5.003.45M38 38L22 22m0 16l5.935-5.935m4.13-4.13L38 22" vector-effect="non-scaling-stroke" fill="none" stroke="currentColor" stroke-width="2" stroke-linecap="round" stroke-linejoin="round"/></symbol><symbol id="euro" viewBox="0 0 60 60"><g fill="none" stroke="currentColor" stroke-linecap="round" stroke-linejoin="round" stroke-width="2"><path d="M6 30a23.974 23.974 0 11.812 6.213M12 26h16m-16 8h16" vector-effect="non-scaling-stroke"/><path d="M42 24h0a12 12 0 00-12-12h0a12 12 0 00-12 12v12a12 12 0 0012 12h0a12 12 0 0012-12h0m-7 22.562A28.979 28.979 0 1030 59" vector-effect="non-scaling-stroke"/></g></symbol><symbol id="evaluation" viewBox="0 0 80 80"><g fill="none" stroke="currentColor" stroke-linecap="round" stroke-width="2" stroke-linejoin="round"><path d="M30.842 33.79l9.231 14.901L57.83 20.01M46.663 78.079a38.686 38.686 0 10-6.67.6" vector-effect="non-scaling-stroke"/><path d="M56.121 34.764v21.357H23.865V23.865h22.238" vector-effect="non-scaling-stroke"/></g></symbol><symbol id="export" viewBox="0 0 60 60"><g fill="none" stroke="currentColor" stroke-linecap="round" stroke-width="2" stroke-linejoin="round"><path d="M52.036 27.994l-4.002-5.003 5.002 1.001 5.863 3.652m-24.872-9.655l-3.012-2.001-5.002 1-2.001-1 3.002-3.002 5.012-3.001-2.011-2.001 3.011-3.001h8.005l2.41-.71" vector-effect="non-scaling-stroke"/><path d="M36.028 14.988l3.002 2 4.002-3.001 2 2.001M40.03 19.99h3.002l-1.001 3.002h-8.004l-2.001-2.002h-9.015l-4.002 4.003v6.003l5.003 4.002 6.003-1.001M25.012 7.984v2.001l-2 1M1.53 35.498l6.484 2.501 2.001 4.002 4.002 2.001-1 4.002M1 29.995l4.002-8.004 4.013-4.002v-3.002m2-6.002l3.002 2 2.992-3.001" vector-effect="non-scaling-stroke"/><path d="M32.936 58.849c-.94.09-1.941.16-2.942.16A29.015 29.015 0 1159.01 29.994c0 1.003-.05 2.005-.15 3.002M45.002 59.01a14.007 14.007 0 115.453-1.101M39.72 44.172l7.354-7.344" vector-effect="non-scaling-stroke"/><path d="M40.95 36.828h6.124v6.123m4.672 2.872l-7.344 7.344m6.123 0h-6.123v-6.123" vector-effect="non-scaling-stroke"/></g></symbol><symbol id="faces" viewBox="0 0 60 60"><g fill="none" stroke="currentColor" stroke-linecap="round" stroke-linejoin="round" stroke-width="2"><path d="M30 23a8.998 8.998 0 115.267-1.701M27 11.943V13m6-1.057V13" vector-effect="non-scaling-stroke"/><path d="M33 16.757a4.243 4.243 0 01-6 0M14 39a8.998 8.998 0 115.267-1.701M11 27.943V29m6-1.057V29" vector-effect="non-scaling-stroke"/><path d="M17 32.757a4.243 4.243 0 01-6 0M30 55a8.998 8.998 0 115.267-1.701M27 43.943V45m6-1.057V45" vector-effect="non-scaling-stroke"/><path d="M33 48.757a4.243 4.243 0 01-6 0M46 39a8.998 8.998 0 115.267-1.701M43 27.943V29m6-1.057V29m0 3.757a4.243 4.243 0 01-6 0m-8 25.805A28.979 28.979 0 1030 59" vector-effect="non-scaling-stroke"/></g></symbol><symbol id="faq" viewBox="0 0 60 60"><path d="M35 58.562A28.979 28.979 0 1030 59M18 22a12 12 0 0112-12 12 12 0 0112 12 12.005 12.005 0 01-8.059 11.338A6.034 6.034 0 0030 39.078V40m0 6v3" vector-effect="non-scaling-stroke" fill="none" stroke="currentColor" stroke-linecap="round" stroke-linejoin="round" stroke-width="2"/></symbol><symbol id="healthcare" viewBox="0 0 60 60"><path d="M48 30a17.983 17.983 0 11-1.17-6.395M29 22h-2v5h-5v6h5v5h6v-5h5v-6h-5v-5m2 36.562A28.979 28.979 0 1030 59" vector-effect="non-scaling-stroke" fill="none" stroke="currentColor" stroke-linecap="round" stroke-linejoin="round" stroke-width="2"/></symbol><symbol id="id-card" viewBox="0 0 60 60"><g fill="none" stroke="currentColor" stroke-linecap="round" stroke-linejoin="round" stroke-width="2"><path d="M52 36V20a4 4 0 00-4-4H12a4 4 0 00-4 4v20a4 4 0 004 4h36a4 4 0 004-4M24.001 26A4.001 4.001 0 1120 21.999" vector-effect="non-scaling-stroke"/><path d="M19 40h8v-4a12.296 12.296 0 00-7-2 12.296 12.296 0 00-7 2m19-12h15m-15 6h10m-10 6h10m-7 22.562A28.979 28.979 0 1030 59" vector-effect="non-scaling-stroke"/></g></symbol><symbol id="id" viewBox="0 0 60 60"><g fill="none" stroke="currentColor" stroke-linecap="round" stroke-linejoin="round" stroke-width="2"><path d="M35 58.562A28.979 28.979 0 1030 59M19.317 41.948a11.994 11.994 0 0010.666-11.926m6.706 14.531a10.153 10.153 0 01-6.156-4.62M14.405 26.354a16.003 16.003 0 0131.467 5.559M23.973 44.844a16.016 16.016 0 001.881-.914 2.62 2.62 0 013.16.456 15.839 15.839 0 001.826 1.592" vector-effect="non-scaling-stroke"/><path d="M39.313 43.002a4.157 4.157 0 00-2.266-2.553 8.092 8.092 0 01-3.324-3.144 3.66 3.66 0 01-.363-2.907 15.77 15.77 0 00.62-4.141 4.107 4.107 0 00-3.271-4.171 4.003 4.003 0 00-4.726 3.936 8.01 8.01 0 01-7.922 8 4.184 4.184 0 00-1.685.387" vector-effect="non-scaling-stroke"/><path d="M42.36 40.158a7.945 7.945 0 00-3.565-3.307l-.02-.009a2.383 2.383 0 01-1.243-2.664 19.716 19.716 0 00.44-3.55 8.227 8.227 0 00-7.3-8.578 8.009 8.009 0 00-8.69 7.97 4.004 4.004 0 01-3.952 4 8.58 8.58 0 00-3.336.73" vector-effect="non-scaling-stroke"/><path d="M44.636 36.435a11.91 11.91 0 00-2.457-2.246.968.968 0 01-.423-.937 23.624 23.624 0 00.215-2.498 12.181 12.181 0 00-10.961-12.69q-.517-.043-1.027-.043a12.013 12.013 0 00-12 12 12.574 12.574 0 00-3.965.693" vector-effect="non-scaling-stroke"/></g></symbol><symbol id="information" viewBox="0 0 60 60"><path d="M29.98 47.98h-4v-24h8v24m0-34a4 4 0 10-4 4 3.89 3.89 0 002-.54m3 41.09a29 29 0 10-5 .45" vector-effect="non-scaling-stroke" fill="none" stroke="currentColor" stroke-linecap="round" stroke-width="2" stroke-linejoin="round"/></symbol><symbol id="kratt" viewBox="0 0 60 60"><path d="M34.997 58.56a29.014 29.014 0 10-5.003.45m-6.002-23.012l24.012-22.01-4.002 10.004-28.014-12.006L42 52.006 19.99 42.001l30.015-10.005-38.02-10.005-6.002 10.005" vector-effect="non-scaling-stroke" fill="none" stroke="currentColor" stroke-linecap="round" stroke-linejoin="round" stroke-width="2"/></symbol><symbol id="ksi" viewBox="0 0 60 60"><path d="M20.016 29.456A4 4 0 1122 26m-7.984 14.456A4 4 0 1116 37m10.016 3.456A4 4 0 1128 37m-12.014-7.548l-1.972 4.096m6-4.096l1.941 4.042m22.061-4.038A4 4 0 1146 26m-7.984 14.456A4 4 0 1140 37m10.016 3.456A4 4 0 1152 37m-12.014-7.548l-1.972 4.096m6-4.096l1.941 4.042M34 15a4 4 0 11-4-4m-2.945 6.7l-6.11 5.6m12-5.6l6.11 5.6M35 58.562A28.979 28.979 0 1030 59" vector-effect="non-scaling-stroke" fill="none" stroke="currentColor" stroke-linecap="round" stroke-linejoin="round" stroke-width="2"/></symbol><symbol id="land-registry" viewBox="0 0 60 60"><g fill="none" stroke="currentColor" stroke-linecap="round" stroke-linejoin="round" stroke-width="2"><path d="M26 21a4 4 0 114 4m8-4a8 8 0 10-14.921 4h-.007L30 37l6.928-12h-.007" vector-effect="non-scaling-stroke"/><path d="M24 35L9.891 40.332 24.974 45.6l24.69-3.615-.929-4.752L36 35m-1 23.562A28.979 28.979 0 1030 59" vector-effect="non-scaling-stroke"/></g></symbol><symbol id="laptop" viewBox="0 0 60 60"><path d="M35 58.562A28.979 28.979 0 1030 59m17-21V16H13v22h30M8 41h44m-34-8l24-17M28 32l19-13" vector-effect="non-scaling-stroke" fill="none" stroke="currentColor" stroke-linecap="round" stroke-linejoin="round" stroke-width="2"/></symbol><symbol id="link" viewBox="0 0 20 24"><path d="M5 10h1v1H5v-1zm-1 1h1v1H4v-1z"/><path d="M7 8H5v1h1v1h1v1h1V8H7zm-1 4v3H1v-5h3V9H0v7h7v-4H6z"/></symbol><symbol id="lock-badge" viewBox="0 0 60 60"><g fill="none" stroke="currentColor" stroke-linecap="round" stroke-linejoin="round" stroke-width="2"><path d="M44.803 16.698c.45 6.153 1.13 11.556-.11 15.268-3.282 9.875-14.698 15.818-14.698 15.818S18.58 41.84 15.298 31.996c-1.24-3.712-.56-9.115-.11-15.268l14.807-3.742 10.545 2.642" vector-effect="non-scaling-stroke"/><path d="M15.188 20.7l14.807-3.702 10.945 2.741M34.997 58.56a29.014 29.014 0 10-5.003.45" vector-effect="non-scaling-stroke"/><path d="M30.245 28.765h5.023v3.511" vector-effect="non-scaling-stroke"/><path d="M33.697 28.765v-1a3.702 3.702 0 00-7.404 0v1h-1.57v7.574h10.544" vector-effect="non-scaling-stroke"/></g></symbol><symbol id="m-parking" viewBox="0 0 60 60"><g fill="none" stroke="currentColor" stroke-linecap="round" stroke-linejoin="round" stroke-width="2"><path d="M25 40V22m0 0h7a5 5 0 015 5 5 5 0 01-5 5h-3m-2-21h6" vector-effect="non-scaling-stroke"/><path d="M21.132 15H43v35a3 3 0 01-3 3H20a3 3 0 01-3-3V10a3 3 0 013-3h20a3 3 0 013 3v.781M17.132 48H39m-4 10.562A28.979 28.979 0 1030 59" vector-effect="non-scaling-stroke"/></g></symbol><symbol id="meeting" viewBox="0 0 60 60"><path d="M34.997 58.56a29.014 29.014 0 10-5.003.45m13.698-36.018a3.791 3.791 0 111.88 3.572m7.434 8.434v-2.252a11.636 11.636 0 00-6.623-1.89 12.886 12.886 0 00-3.762.55M8.984 22.992a3.792 3.792 0 113.772 4.082 3.832 3.832 0 01-1.9-.51m-3.612 8.434v-2.252a11.636 11.636 0 016.623-1.89 12.886 12.886 0 013.762.55m4.622-10.016a7.894 7.894 0 112.371 4.243m5.373 21.371h13.507V36.419a23.723 23.723 0 00-13.507-3.862 23.672 23.672 0 00-13.497 3.862v10.585" vector-effect="non-scaling-stroke" stroke="currentColor" stroke-width="2" stroke-linecap="round" fill="none" stroke-linejoin="round"/></symbol><symbol id="menu" viewBox="0 0 24 24"><path fill="none" stroke="currentColor" stroke-linecap="round" stroke-linejoin="round" stroke-width="2" d="M23 12H1m22-5H1m22 10H1" vector-effect="non-scaling-stroke"/></symbol><symbol id="news" viewBox="0 0 60 60"><g fill="none" stroke="currentColor" stroke-linecap="round" stroke-linejoin="round" stroke-width="2"><path d="M35 58.562A28.979 28.979 0 1030 59M11 20H9v22.5a2.5 2.5 0 002.5 2.5h0a2.5 2.5 0 002.5-2.5V13h34.118L48 45H19m12.118-11h12m-12-5h12m-12 10h12" vector-effect="non-scaling-stroke"/><path d="M27 36v-7h-8v10h8m16-21H19m17 5H19" vector-effect="non-scaling-stroke"/></g></symbol><symbol id="online-company" viewBox="0 0 60 60"><g fill="none" stroke="currentColor" stroke-linecap="round" stroke-linejoin="round"><path stroke-width="2.034" d="M47 42.777l-8-9.863v12.875l4-1.506 2.089 5.936" vector-effect="non-scaling-stroke"/><path stroke-width="2.034" d="M34 42.966H12V18.138h36v7.759l-16 4.195v3.563h-4v-3.563l-12-3.161m32-1.034v10.862M35 15.034v-2.069a2.035 2.035 0 00-2-2.069h-6a2.035 2.035 0 00-2 2.07v2.068" vector-effect="non-scaling-stroke"/><path d="M35 58.562A28.979 28.979 0 1030 59" stroke-width="2" vector-effect="non-scaling-stroke"/></g></symbol><symbol id="person" viewBox="0 0 60 60"><g fill="none" stroke="currentColor" stroke-linecap="round" stroke-width="2"><path d="M46.458 39.5A19.005 19.005 0 1149 30a52.11 52.11 0 01-14.583 3c-8.167.5-14.417-.583-18.323-3M35 58.562A28.979 28.979 0 1030 59" stroke-linejoin="round" vector-effect="non-scaling-stroke"/><path stroke-miterlimit="10" d="M26 22v1m9-1v1" vector-effect="non-scaling-stroke"/></g></symbol><symbol id="phone" viewBox="0 0 24 24"><path d="M15.75 14.85l-2.54 2.53a15.376 15.376 0 01-3.798-2.792A15.376 15.376 0 016.62 10.79l2.53-2.54L8.512 3H3v1c0 4.539 1.84 8.874 4.966 12.034C11.126 19.16 15.461 21 20 21h1v-5.512l-5.25-.638z"/></symbol><symbol id="pin" viewBox="0 0 24 24"><path d="M12 12a2 2 0 10-2-2 2 2 0 002 2z"/><circle cx="12" cy="10" r="2"/><path d="M12 2a8 8 0 00-8 8c0 3 1.48 4.71 3 6.45l.78.92a45.8 45.8 0 002.49 2.8l.37.38.45.45.91 1 .93-1 .45-.45.37-.38a45.8 45.8 0 002.49-2.8l.76-.87c1.47-1.71 3-4 3-6.5a8 8 0 00-8-8zm3.53 13.1l-.83 1c-.87 1.06-1.74 2-2.39 2.68l-.31.32-.31-.32c-.69-.68-1.52-1.62-2.39-2.68-.3-.37-.59-.72-.87-1C7 13.33 6 12.2 6 10a6 6 0 0112 0c0 2.2-1 3.41-2.47 5.1z"/></symbol><symbol id="plus" viewBox="0 0 32 32"><path d="M29 16H3m13 13v-9.6m0-6.8V3" vector-effect="non-scaling-stroke" fill="none" stroke="currentColor" stroke-linecap="round" stroke-width="2" stroke-linejoin="round"/></symbol><symbol id="quote" viewBox="0 0 24 24"><path d="M9.68 18.563H3.094v-4.711c0-1.907.164-3.407.492-4.5.344-1.11.969-2.102 1.875-2.977S7.523 4.812 8.93 4.312l1.289 2.72c-1.313.437-2.258 1.046-2.836 1.827-.563.782-.86 1.82-.89 3.118H9.68v6.585zm10.992 0h-6.586v-4.711c0-1.922.164-3.43.492-4.524.344-1.094.969-2.078 1.875-2.953.922-.875 2.078-1.563 3.469-2.063l1.289 2.72c-1.313.437-2.258 1.046-2.836 1.827-.563.782-.86 1.82-.89 3.118h3.187v6.585z"/></symbol><symbol id="seamless-transparent-services" viewBox="0 0 60 60"><path d="M34.997 58.56a29.015 29.015 0 10-5.003.45M16.988 41.73a12.392 12.392 0 01-3.391-1.93m20.39-5.523v-3.921m-25.072-.872c.051-1.31.308-2.602.76-3.832m1.911-3.411a12.48 12.48 0 012.871-2.651m3.532-1.601c1.12-.32 2.278-.482 3.442-.48m21.571.75a12.6 12.6 0 013.401 1.93m-20.38 5.524v3.932m25.062.86a12.493 12.493 0 01-.76 3.832m-1.911 3.412a12.622 12.622 0 01-2.861 2.65m-3.552 1.652c-1.119.32-2.278.482-3.442.48M23.422 27.844l2.591-2.602 2.592 2.602h-5.183zm13.156 4.312l-2.591 2.592-2.601-2.592h5.192zm-3.102-5.683a12.452 12.452 0 00-1.67-3.482 12.436 12.436 0 011.67 3.532v-.05zm-4.054-6.583A12.587 12.587 0 0026 18M10.985 36.918a12.308 12.308 0 01-1.63-3.552M38.56 17.459c-1.106.002-2.494.25-3.56.541 1.067-.288 2.454-.537 3.56-.541zm10.444 5.612a12.309 12.309 0 011.63 3.552M30.5 39.5c1.035.804 2.555 1.842 3.787 2.29a12.588 12.588 0 01-3.422-1.89l-.365-.4zm-4-6a12.601 12.601 0 001.693 3.548M21.44 42.53c1.106 0 2.494-.239 3.56-.53-1.067.288-2.454.527-3.56.53z" vector-effect="non-scaling-stroke" fill="none" stroke="currentColor" stroke-width="2" stroke-linecap="round" stroke-linejoin="round"/></symbol><symbol id="search" viewBox="0 0 24 24"><path d="M17 9a7.996 7.996 0 11-1.035-3.939M23 23l-5.985-5.985" fill="none" stroke="currentColor" stroke-linecap="round" stroke-linejoin="round" stroke-width="2" vector-effect="non-scaling-stroke"/></symbol><symbol id="server" viewBox="0 0 60 60"><path d="M46 46H14v-8h32v4m-32-4v-8h32v4m-32-4v-8h32v4m-32-4v-8h32v4m-24 0h-4m4 8h-4m4 8h-4m4 8h-4m12 1v-2m4 2v-2m4 2v-2m4 2v-2m-12-6v-2m4 2v-2m4 2v-2m4 2v-2m-12-6v-2m4 2v-2m4 2v-2m4 2v-2m-12-6v-2m4 2v-2m4 2v-2m4 2v-2m-7 41.562A28.979 28.979 0 1030 59" vector-effect="non-scaling-stroke" fill="none" stroke="currentColor" stroke-linecap="round" stroke-linejoin="round" stroke-width="2"/></symbol><symbol id="share" viewBox="0 0 60 60"><path d="M41.456 39.984A4 4 0 1138 38m3.456-22.016A4 4 0 1138 14M18 26a4 4 0 11-4 4m7.122 2.498l13.755 7.004M21.122 27.503l13.755-7.004M35 58.562A28.979 28.979 0 1030 59" vector-effect="non-scaling-stroke" fill="none" stroke="currentColor" stroke-linecap="round" stroke-linejoin="round" stroke-width="2"/></symbol><symbol id="shortcut" viewBox="0 0 60 60"><g fill="none" stroke="currentColor" stroke-linecap="round" stroke-linejoin="round" stroke-width="2"><path d="M32 40l-1-5m8.5 11a5.32 5.32 0 01-3.5 2c-.758.015-2-1-3-3m10-7l-1 4M28 20l1 5m-8.5-11a5.32 5.32 0 013.5-2c.758-.015 2 1 3 3m-10 7l1-4m-5 16a4 4 0 114-4m30 4a4 4 0 114-4M35 58.562A28.979 28.979 0 1030 59m-8.243-29h16.486" vector-effect="non-scaling-stroke"/><path d="M34.707 26.464L38.243 30l-3.536 3.536" vector-effect="non-scaling-stroke"/></g></symbol><symbol id="signature" viewBox="0 0 60 60"><g fill="none" stroke="currentColor" stroke-linecap="round" stroke-linejoin="round" stroke-width="2"><path d="M35 58.562A28.979 28.979 0 1030 59M7.893 23.007c8.416-1.924 12.958 1.076 14.62 3.733a5.449 5.449 0 01-.324 6.67 4.574 4.574 0 01-8.098-1.188c-1.629-5.538 4.427-10.139 8.724-9.604a3.437 3.437 0 013.244 2.755c.593 1.726 1.292 2.195 1.646 1.056s1.275-2.47 2.606-2.554 1.135 5.68 3.03 2.363c.865-1.514 1.55-2.424 2.801-2.696.959-.209 1.542.166 2.375 1.25a2.693 2.693 0 01.434 2.166c-.475 1.334-2.267 1.334-2.225-.041" vector-effect="non-scaling-stroke"/><path d="M12.108 46h33.909V13.355" vector-effect="non-scaling-stroke"/></g></symbol><symbol id="smart-city" viewBox="0 0 60 61"><g fill="none" stroke="currentColor" stroke-linecap="round" stroke-linejoin="round" stroke-width="2"><path d="M23.5 22.124L45 28.957 15 39.083l21.5 6.707" vector-effect="non-scaling-stroke"/><path d="M32.532 47.793L36.5 45.79l-2.003-3.968M18 19.957v-10l6 3-3 2m21 33v-10l6 3-3 2M35 59.519a28.978 28.978 0 10-5 .438" vector-effect="non-scaling-stroke"/></g></symbol><symbol id="smart-id" viewBox="0 0 60 60"><g fill="none" stroke="currentColor" stroke-linecap="round" stroke-width="2" stroke-linejoin="round"><path d="M34.997 58.559a29.014 29.014 0 10-5.003.45m3.943-27.733v18.9a20.49 20.49 0 01-15.658-36.77" vector-effect="non-scaling-stroke"/><path d="M26.053 38.059V9.815a20.49 20.49 0 0115.658 36.768M33.947 21.77v.06" vector-effect="non-scaling-stroke"/></g></symbol><symbol id="social-facebook" viewBox="0 0 14 24"><path d="M7.875 19v-5.625H11l1-4.125H7.875V6.5A1.375 1.375 0 019.25 5.125H13V1H9.25a5.5 5.5 0 00-5.5 5.5v2.75H1v4.125h2.75V23h4.125" fill="none" stroke="currentColor" stroke-linecap="round" stroke-linejoin="round" stroke-width="2" vector-effect="non-scaling-stroke"/></symbol><symbol id="social-linkedin" viewBox="0 0 24 24"><path d="M5.894 17.865v-7.044a1.57 1.57 0 00-1.57-1.562h-.745a1.57 1.57 0 00-1.563 1.562v10.177h3.878m7.028-3.133V15.99c0-3.656 4.712-3.951 4.712 0v3.436a1.563 1.563 0 001.57 1.571h.737a1.563 1.563 0 001.636-1.57v-5.572c0-6.168-7.019-5.947-8.663-2.912v-.115a1.563 1.563 0 00-1.555-1.57h-.769a1.57 1.57 0 00-1.562 1.562v10.177h3.894M3.939 6.878a1.939 1.939 0 111.939-1.94" vector-effect="non-scaling-stroke" fill="none" stroke="currentColor" stroke-linecap="round" stroke-linejoin="round" stroke-width="2"/></symbol><symbol id="social-twitter" viewBox="0 0 24 19.558"><g fill="none" stroke="currentColor" stroke-linecap="round" stroke-linejoin="round" stroke-width="2"><path d="M19.546 2.494A4.345 4.345 0 0012.1 6.63a13.128 13.128 0 01-9.494-5.062C.016 6.035 1.64 13.444 7.474 15.374" vector-effect="non-scaling-stroke"/><path d="M1 16.85a13.106 13.106 0 006.474 1.708A13.17 13.17 0 0020.633 5.8l.02.044L23 3.337" vector-effect="non-scaling-stroke"/></g></symbol><symbol id="social-youtube" viewBox="0 0 24 24"><path d="M14 20H5a4 4 0 01-4-4V8a4 4 0 014-4h14a4 4 0 014 4v8a4 4 0 01-4 4h-1" fill="none" stroke="currentColor" stroke-linecap="round" stroke-linejoin="round" stroke-width="2" vector-effect="non-scaling-stroke"/><path fill="none" stroke="currentColor" stroke-linecap="round" stroke-linejoin="round" stroke-width="2" d="M10 13v3l6-4-6-4" vector-effect="non-scaling-stroke"/></symbol><symbol id="stone-1" viewBox="0 0 557 418"><path fill-rule="evenodd" clip-rule="evenodd" d="M480.206 48.964A167.041 167.041 0 00362.042 0h-139.24a167.01 167.01 0 00-118.159 48.964l-55.698 55.73A167.272 167.272 0 000 222.922v27.861C0 343.135 74.806 418 167.099 418h222.792C482.184 418 557 343.135 557 250.783v-55.731c0-44.34-17.625-86.864-48.945-118.223l-27.849-27.865z" fill="currentColor"/></symbol><symbol id="stone-2" viewBox="0 0 209 143"><path fill-rule="evenodd" clip-rule="evenodd" d="M170.757 13.961C161.707 5.025 149.44 0 136.649 0H72.343c-12.79 0-25.058 5.025-34.1 13.961L14.126 37.795c-18.835 18.617-18.835 48.796 0 67.41l24.117 23.834c9.042 8.939 21.31 13.961 34.1 13.961h88.424C187.405 143 209 121.659 209 95.333V71.5c0-12.64-5.083-24.764-14.126-33.705l-24.117-23.834z" fill="currentColor"/></symbol><symbol id="stone-3" viewBox="0 0 209 145"><path fill-rule="evenodd" clip-rule="evenodd" d="M200.576 48.379l-16.72-25.59C174.552 8.551 158.891 0 142.118 0H91.961a49.268 49.268 0 00-18.63 3.662L31.53 20.72C17.496 26.446 6.742 38.327 2.258 53.056-2.225 67.783.038 83.789 8.423 96.622l16.72 25.588C34.447 136.449 50.11 145 66.88 145h83.601c18.999 0 36.367-10.95 44.864-28.288l8.36-17.061c8.049-16.424 6.855-35.99-3.129-51.272z" fill="currentColor"/></symbol><symbol id="stone-4" viewBox="0 0 209 127"><path fill-rule="evenodd" clip-rule="evenodd" d="M199.236 96.352l7.465-22.412a44.852 44.852 0 00-10.819-45.869l-14.93-14.94A44.762 44.762 0 00149.286 0h-74.64a44.763 44.763 0 00-26.874 8.967l-29.855 22.41C.604 44.372-4.949 67.904 4.732 87.28l7.464 14.939C19.782 117.406 35.289 127 52.25 127h104.5c19.278 0 36.389-12.346 42.486-30.648z" fill="currentColor"/></symbol><symbol id="stop" viewBox="0 0 60 60"><path d="M42 42H18V18h24v20m-7 20.562A28.979 28.979 0 1030 59" vector-effect="non-scaling-stroke" fill="none" stroke="currentColor" stroke-linecap="round" stroke-linejoin="round" stroke-width="2"/></symbol><symbol id="success" viewBox="0 0 60 60"><path d="M18.99 28.454l8.814 14.237L42.59 18.81m-7.593 39.749a29.014 29.014 0 10-5.002.45" vector-effect="non-scaling-stroke" fill="none" stroke="currentColor" stroke-linecap="round" stroke-linejoin="round" stroke-width="2"/></symbol><symbol id="support" viewBox="0 0 60 60"><g fill="none" stroke="currentColor" stroke-linecap="round" stroke-width="2" stroke-linejoin="round"><path d="M34.997 58.559a29.015 29.015 0 10-5.002.45m8.865-30.365h1.24m.19 4.673h.58" vector-effect="non-scaling-stroke"/><path d="M11.426 26.233l10.765.09s7.904-4.912 10.075-6.153a11.596 11.596 0 004.873-5.743c.67-1.55 1.27-1.7 2.48-1.16 1.572.71 1.161 2.27 1.161 4.642 0 1.11-1.19 2.491-2.13 3.552m-6.654 2.531h13.737a2.072 2.072 0 012.361 2.331 2.071 2.071 0 01-2.361 2.331h-1.661a2.07 2.07 0 012.361 2.341 2.072 2.072 0 01-2.361 2.332h-.7a2.072 2.072 0 012.36 2.34A2.07 2.07 0 0143.373 38H42a2.24 2.24 0 012.361 2.331c-.09 1.32-.57 2.341-2.361 2.341H28.925c-5.093 0-6.003-3.001-6.003-3.001H11.426" vector-effect="non-scaling-stroke"/></g></symbol><symbol id="tax" viewBox="0 0 60 60"><g fill="none" stroke="currentColor" stroke-linecap="round" stroke-linejoin="round" stroke-width="2"><path d="M35 39h0a3 3 0 01-3-3h0a3 3 0 013-3h0a3 3 0 013 3h0m-13-7h0a3 3 0 01-3-3h0a3 3 0 013-3h0a3 3 0 013 3h0m9-3L23 39" vector-effect="non-scaling-stroke"/><path d="M42 48H18V12h18l6 6v26" vector-effect="non-scaling-stroke"/><path d="M36 12v6h2m-3 40.562A28.979 28.979 0 1030 59" vector-effect="non-scaling-stroke"/></g></symbol><symbol id="unicorn" viewBox="0 0 60 60"><g fill="none" stroke="currentColor" stroke-linecap="round" stroke-width="2" stroke-linejoin="round"><path d="M29.995 59.01A29.015 29.015 0 019.405 9.575M34.998 58.56a29.015 29.015 0 10-19.57-53.638" vector-effect="non-scaling-stroke"/><path d="M32.996 36.238c-1.35 4.002-3.731 7.254-8.814 10.806a25.014 25.014 0 00-5.573 5.832m16.078-26.473c0 4.582-1.81 10.115-13.927 10.055-1.39 1.601-4.862 4.683-4.862 4.683l-2.751-.57a12.637 12.637 0 00-1.161-4.923c-1.06-1.731 0-3.732 2.341-5.653 2.341-1.921 7.004-7.004 6.413-10.355 1.12-1.691 4.293-3.762 10.005-4.002m-6.553-1.481L7.224 3.162 22.02 17.959m12.878-2.201c5.862.81 10.385 5.313 12.896 9.154 1.71 2.612 2.871 7.144 2.541 11.686M35.448 13.037l-7.454-5.813s-.81 4.892.83 8.124" vector-effect="non-scaling-stroke"/><path d="M27.824 11.376l-2.762-.88.51 1.65m12.528-.06a19.48 19.48 0 017.113 2.151l-2.932.75c2.561.67 6.954 3.592 8.114 4.663h-2.721a23.01 23.01 0 015.633 5.413l-2.001-.41c3.431 6.002 2.49 14.006-.17 20.34" vector-effect="non-scaling-stroke"/></g></symbol><symbol id="voting" viewBox="0 0 60 60"><g fill="none" stroke="currentColor" stroke-linecap="round" stroke-width="2"><path d="M27 11h6m-11.868 4H43v35a3 3 0 01-3 3H20a3 3 0 01-3-3V10a3 3 0 013-3h20a3 3 0 013 3v.781M17.132 48H39" vector-effect="non-scaling-stroke"/><path d="M22 30.81L27.19 36 38 26m-3 32.562A28.978 28.978 0 1030 59" vector-effect="non-scaling-stroke"/></g></symbol><symbol id="webinar" viewBox="0 0 60 60"><g stroke="currentColor" stroke-width="2" stroke-linecap="round" fill="none" stroke-linejoin="round"><path d="M25.883 23.676a4.092 4.092 0 112.001 3.872m9.115 7.515v-2.451a12.344 12.344 0 00-7.004-2.002 12.308 12.308 0 00-7.003 2.002v2.451" vector-effect="non-scaling-stroke"/><path d="M34.997 58.559A29.023 29.023 0 0047.91 7.29a29.011 29.011 0 00-39.965 3.677 29.022 29.022 0 001.942 40.094 29.012 29.012 0 0020.107 7.958" vector-effect="non-scaling-stroke"/><path d="M47.033 37.985V15.971H13.016v22.014h30.015M8.014 40.987h44.022" vector-effect="non-scaling-stroke"/></g></symbol><symbol id="wifi" viewBox="0 0 60 60"><path d="M35 58.562A28.979 28.979 0 1030 59m2.121-13.879a3 3 0 110-4.242m-9.192-4.95a10 10 0 0114.142 0m-19.799-5.657a18 18 0 0125.456 0m-31.113-5.657a26 26 0 0136.77 0" vector-effect="non-scaling-stroke" fill="none" stroke="currentColor" stroke-linecap="round" stroke-linejoin="round" stroke-width="2"/></symbol><symbol id="xroad-eu" viewBox="0 0 60 60"><g fill="none" stroke="currentColor" stroke-linecap="round" stroke-linejoin="round" stroke-width="2"><path d="M42 31.765L34.235 24 42 16.235M37.765 12L30 19.765 22.235 12M18 16.235L25.765 24 18 31.765M22.235 36L30 28.235 37.765 36M35 58.562A28.979 28.979 0 1030 59" vector-effect="non-scaling-stroke"/><path d="M28 50h-4v-8.008h4m8 5.113v-5.113m-5 0v5.113m-7-1.109L27 46m9 1.492a2.5 2.5 0 01-5 0" vector-effect="non-scaling-stroke"/></g></symbol><symbol id="xroad" viewBox="0 0 60 60"><path d="M42 37.765L34.235 30 42 22.235M37.765 18L30 25.765 22.235 18M18 22.235L25.765 30 18 37.765M22.235 42L30 34.235 37.765 42M35 58.562A28.979 28.979 0 1030 59" vector-effect="non-scaling-stroke" fill="none" stroke="currentColor" stroke-linecap="round" stroke-linejoin="round" stroke-width="2"/></symbol></defs><view id="view-apply" viewBox="0 0 50 50"></view><view id="view-arrow-down-outline" viewBox="50 0 50 50"></view><view id="view-arrow-down" viewBox="100 0 50 50"></view><view id="view-arrow-left" viewBox="150 0 50 50"></view><view id="view-arrow-right-long" viewBox="200 0 50 50"></view><view id="view-arrow-right-outline" viewBox="250 0 50 50"></view><view id="view-arrow-right" viewBox="300 0 50 50"></view><view id="view-arrow-up" viewBox="350 0 50 50"></view><view id="view-artificial-intelligence" viewBox="400 0 50 50"></view><view id="view-attraction" viewBox="450 0 50 50"></view><view id="view-bank-coin" viewBox="500 0 50 50"></view><view id="view-bank" viewBox="550 0 50 50"></view><view id="view-banking" viewBox="600 0 50 50"></view><view id="view-book" viewBox="650 0 50 50"></view><view id="view-briefcase" viewBox="700 0 50 50"></view><view id="view-bulb" viewBox="750 0 50 50"></view><view id="view-business-registry" viewBox="800 0 50 50"></view><view id="view-calendar" viewBox="850 0 50 50"></view><view id="view-car" viewBox="900 0 50 50"></view><view id="view-challenge" viewBox="950 0 50 50"></view><view id="view-check" viewBox="0 50 50 50"></view><view id="view-checkbox-check" viewBox="50 50 50 50"></view><view id="view-chevron-bottom" viewBox="100 50 85.71 50"></view><view id="view-chevron-left" viewBox="200 50 50 50"></view><view id="view-chevron-right" viewBox="250 50 50 50"></view><view id="view-chevron-top" viewBox="300 50 85.71 50"></view><view id="view-circle" viewBox="400 50 49.07 50"></view><view id="view-close" viewBox="450 50 50 50"></view><view id="view-court" viewBox="500 50 50 50"></view><view id="view-data" viewBox="550 50 50 50"></view><view id="view-digital-id" viewBox="600 50 50 50"></view><view id="view-diploma" viewBox="650 50 50 50"></view><view id="view-doc" viewBox="700 50 50 50"></view><view id="view-download" viewBox="750 50 50 50"></view><view id="view-e-education" viewBox="800 50 50 50"></view><view id="view-e-police" viewBox="850 50 50 50"></view><view id="view-e-prescription" viewBox="900 50 50 50"></view><view id="view-e-residency" viewBox="950 50 50 50"></view><view id="view-e" viewBox="0 100 50 50"></view><view id="view-eas" viewBox="50 100 165 50"></view><view id="view-edit" viewBox="250 100 50 50"></view><view id="view-egg" viewBox="300 100 50 50"></view><view id="view-email" viewBox="350 100 50 50"></view><view id="view-embassy" viewBox="400 100 50 50"></view><view id="view-energy" viewBox="450 100 50 50"></view><view id="view-error" viewBox="500 100 50 50"></view><view id="view-euro" viewBox="550 100 50 50"></view><view id="view-evaluation" viewBox="600 100 50 50"></view><view id="view-export" viewBox="650 100 50 50"></view><view id="view-faces" viewBox="700 100 50 50"></view><view id="view-faq" viewBox="750 100 50 50"></view><view id="view-healthcare" viewBox="800 100 50 50"></view><view id="view-id-card" viewBox="850 100 50 50"></view><view id="view-id" viewBox="900 100 50 50"></view><view id="view-information" viewBox="950 100 50 50"></view><view id="view-kratt" viewBox="0 150 50 50"></view><view id="view-ksi" viewBox="50 150 50 50"></view><view id="view-land-registry" viewBox="100 150 50 50"></view><view id="view-laptop" viewBox="150 150 50 50"></view><view id="view-link" viewBox="200 150 41.67 50"></view><view id="view-lock-badge" viewBox="250 150 50 50"></view><view id="view-m-parking" viewBox="300 150 50 50"></view><view id="view-meeting" viewBox="350 150 50 50"></view><view id="view-menu" viewBox="400 150 50 50"></view><view id="view-news" viewBox="450 150 50 50"></view><view id="view-online-company" viewBox="500 150 50 50"></view><view id="view-person" viewBox="550 150 50 50"></view><view id="view-phone" viewBox="600 150 50 50"></view><view id="view-pin" viewBox="650 150 50 50"></view><view id="view-plus" viewBox="700 150 50 50"></view><view id="view-quote" viewBox="750 150 50 50"></view><view id="view-seamless-transparent-services" viewBox="800 150 50 50"></view><view id="view-search" viewBox="850 150 50 50"></view><view id="view-server" viewBox="900 150 50 50"></view><view id="view-share" viewBox="950 150 50 50"></view><view id="view-shortcut" viewBox="0 200 50 50"></view><view id="view-signature" viewBox="50 200 50 50"></view><view id="view-smart-city" viewBox="100 200 49.18 50"></view><view id="view-smart-id" viewBox="150 200 50 50"></view><view id="view-social-facebook" viewBox="200 200 29.17 50"></view><view id="view-social-linkedin" viewBox="250 200 50 50"></view><view id="view-social-twitter" viewBox="300 200 61.36 50"></view><view id="view-social-youtube" viewBox="400 200 50 50"></view><view id="view-stone-1" viewBox="450 200 66.63 50"></view><view id="view-stone-2" viewBox="550 200 73.08 50"></view><view id="view-stone-3" viewBox="650 200 72.07 50"></view><view id="view-stone-4" viewBox="750 200 82.28 50"></view><view id="view-stop" viewBox="850 200 50 50"></view><view id="view-success" viewBox="900 200 50 50"></view><view id="view-support" viewBox="950 200 50 50"></view><view id="view-tax" viewBox="0 250 50 50"></view><view id="view-unicorn" viewBox="50 250 50 50"></view><view id="view-voting" viewBox="100 250 50 50"></view><view id="view-webinar" viewBox="150 250 50 50"></view><view id="view-wifi" viewBox="200 250 50 50"></view><view id="view-xroad-eu" viewBox="250 250 50 50"></view><view id="view-xroad" viewBox="300 250 50 50"></view><use id="apply" xlink:href="#apply" width="50" height="50" x="0" y="0"></use><use id="arrow-down-outline" xlink:href="#arrow-down-outline" width="50" height="50" x="50" y="0"></use><use id="arrow-down" xlink:href="#arrow-down" width="50" height="50" x="100" y="0"></use><use id="arrow-left" xlink:href="#arrow-left" width="50" height="50" x="150" y="0"></use><use id="arrow-right-long" xlink:href="#arrow-right-long" width="50" height="50" x="200" y="0"></use><use id="arrow-right-outline" xlink:href="#arrow-right-outline" width="50" height="50" x="250" y="0"></use><use id="arrow-right" xlink:href="#arrow-right" width="50" height="50" x="300" y="0"></use><use id="arrow-up" xlink:href="#arrow-up" width="50" height="50" x="350" y="0"></use><use id="artificial-intelligence" xlink:href="#artificial-intelligence" width="50" height="50" x="400" y="0"></use><use id="attraction" xlink:href="#attraction" width="50" height="50" x="450" y="0"></use><use id="bank-coin" xlink:href="#bank-coin" width="50" height="50" x="500" y="0"></use><use id="bank" xlink:href="#bank" width="50" height="50" x="550" y="0"></use><use id="banking" xlink:href="#banking" width="50" height="50" x="600" y="0"></use><use id="book" xlink:href="#book" width="50" height="50" x="650" y="0"></use><use id="briefcase" xlink:href="#briefcase" width="50" height="50" x="700" y="0"></use><use id="bulb" xlink:href="#bulb" width="50" height="50" x="750" y="0"></use><use id="business-registry" xlink:href="#business-registry" width="50" height="50" x="800" y="0"></use><use id="calendar" xlink:href="#calendar" width="50" height="50" x="850" y="0"></use><use id="car" xlink:href="#car" width="50" height="50" x="900" y="0"></use><use id="challenge" xlink:href="#challenge" width="50" height="50" x="950" y="0"></use><use id="check" xlink:href="#check" width="50" height="50" x="0" y="50"></use><use id="checkbox-check" xlink:href="#checkbox-check" width="50" height="50" x="50" y="50"></use><use id="chevron-bottom" xlink:href="#chevron-bottom" width="85.71" height="50" x="100" y="50"></use><use id="chevron-left" xlink:href="#chevron-left" width="50" height="50" x="200" y="50"></use><use id="chevron-right" xlink:href="#chevron-right" width="50" height="50" x="250" y="50"></use><use id="chevron-top" xlink:href="#chevron-top" width="85.71" height="50" x="300" y="50"></use><use id="circle" xlink:href="#circle" width="49.07" height="50" x="400" y="50"></use><use id="close" xlink:href="#close" width="50" height="50" x="450" y="50"></use><use id="court" xlink:href="#court" width="50" height="50" x="500" y="50"></use><use id="data" xlink:href="#data" width="50" height="50" x="550" y="50"></use><use id="digital-id" xlink:href="#digital-id" width="50" height="50" x="600" y="50"></use><use id="diploma" xlink:href="#diploma" width="50" height="50" x="650" y="50"></use><use id="doc" xlink:href="#doc" width="50" height="50" x="700" y="50"></use><use id="download" xlink:href="#download" width="50" height="50" x="750" y="50"></use><use id="e-education" xlink:href="#e-education" width="50" height="50" x="800" y="50"></use><use id="e-police" xlink:href="#e-police" width="50" height="50" x="850" y="50"></use><use id="e-prescription" xlink:href="#e-prescription" width="50" height="50" x="900" y="50"></use><use id="e-residency" xlink:href="#e-residency" width="50" height="50" x="950" y="50"></use><use id="e" xlink:href="#e" width="50" height="50" x="0" y="100"></use><use id="eas" xlink:href="#eas" width="165" height="50" x="50" y="100"></use><use id="edit" xlink:href="#edit" width="50" height="50" x="250" y="100"></use><use id="egg" xlink:href="#egg" width="50" height="50" x="300" y="100"></use><use id="email" xlink:href="#email" width="50" height="50" x="350" y="100"></use><use id="embassy" xlink:href="#embassy" width="50" height="50" x="400" y="100"></use><use id="energy" xlink:href="#energy" width="50" height="50" x="450" y="100"></use><use id="error" xlink:href="#error" width="50" height="50" x="500" y="100"></use><use id="euro" xlink:href="#euro" width="50" height="50" x="550" y="100"></use><use id="evaluation" xlink:href="#evaluation" width="50" height="50" x="600" y="100"></use><use id="export" xlink:href="#export" width="50" height="50" x="650" y="100"></use><use id="faces" xlink:href="#faces" width="50" height="50" x="700" y="100"></use><use id="faq" xlink:href="#faq" width="50" height="50" x="750" y="100"></use><use id="healthcare" xlink:href="#healthcare" width="50" height="50" x="800" y="100"></use><use id="id-card" xlink:href="#id-card" width="50" height="50" x="850" y="100"></use><use id="id" xlink:href="#id" width="50" height="50" x="900" y="100"></use><use id="information" xlink:href="#information" width="50" height="50" x="950" y="100"></use><use id="kratt" xlink:href="#kratt" width="50" height="50" x="0" y="150"></use><use id="ksi" xlink:href="#ksi" width="50" height="50" x="50" y="150"></use><use id="land-registry" xlink:href="#land-registry" width="50" height="50" x="100" y="150"></use><use id="laptop" xlink:href="#laptop" width="50" height="50" x="150" y="150"></use><use id="link" xlink:href="#link" width="41.67" height="50" x="200" y="150"></use><use id="lock-badge" xlink:href="#lock-badge" width="50" height="50" x="250" y="150"></use><use id="m-parking" xlink:href="#m-parking" width="50" height="50" x="300" y="150"></use><use id="meeting" xlink:href="#meeting" width="50" height="50" x="350" y="150"></use><use id="menu" xlink:href="#menu" width="50" height="50" x="400" y="150"></use><use id="news" xlink:href="#news" width="50" height="50" x="450" y="150"></use><use id="online-company" xlink:href="#online-company" width="50" height="50" x="500" y="150"></use><use id="person" xlink:href="#person" width="50" height="50" x="550" y="150"></use><use id="phone" xlink:href="#phone" width="50" height="50" x="600" y="150"></use><use id="pin" xlink:href="#pin" width="50" height="50" x="650" y="150"></use><use id="plus" xlink:href="#plus" width="50" height="50" x="700" y="150"></use><use id="quote" xlink:href="#quote" width="50" height="50" x="750" y="150"></use><use id="seamless-transparent-services" xlink:href="#seamless-transparent-services" width="50" height="50" x="800" y="150"></use><use id="search" xlink:href="#search" width="50" height="50" x="850" y="150"></use><use id="server" xlink:href="#server" width="50" height="50" x="900" y="150"></use><use id="share" xlink:href="#share" width="50" height="50" x="950" y="150"></use><use id="shortcut" xlink:href="#shortcut" width="50" height="50" x="0" y="200"></use><use id="signature" xlink:href="#signature" width="50" height="50" x="50" y="200"></use><use id="smart-city" xlink:href="#smart-city" width="49.18" height="50" x="100" y="200"></use><use id="smart-id" xlink:href="#smart-id" width="50" height="50" x="150" y="200"></use><use id="social-facebook" xlink:href="#social-facebook" width="29.17" height="50" x="200" y="200"></use><use id="social-linkedin" xlink:href="#social-linkedin" width="50" height="50" x="250" y="200"></use><use id="social-twitter" xlink:href="#social-twitter" width="61.36" height="50" x="300" y="200"></use><use id="social-youtube" xlink:href="#social-youtube" width="50" height="50" x="400" y="200"></use><use id="stone-1" xlink:href="#stone-1" width="66.63" height="50" x="450" y="200"></use><use id="stone-2" xlink:href="#stone-2" width="73.08" height="50" x="550" y="200"></use><use id="stone-3" xlink:href="#stone-3" width="72.07" height="50" x="650" y="200"></use><use id="stone-4" xlink:href="#stone-4" width="82.28" height="50" x="750" y="200"></use><use id="stop" xlink:href="#stop" width="50" height="50" x="850" y="200"></use><use id="success" xlink:href="#success" width="50" height="50" x="900" y="200"></use><use id="support" xlink:href="#support" width="50" height="50" x="950" y="200"></use><use id="tax" xlink:href="#tax" width="50" height="50" x="0" y="250"></use><use id="unicorn" xlink:href="#unicorn" width="50" height="50" x="50" y="250"></use><use id="voting" xlink:href="#voting" width="50" height="50" x="100" y="250"></use><use id="webinar" xlink:href="#webinar" width="50" height="50" x="150" y="250"></use><use id="wifi" xlink:href="#wifi" width="50" height="50" x="200" y="250"></use><use id="xroad-eu" xlink:href="#xroad-eu" width="50" height="50" x="250" y="250"></use><use id="xroad" xlink:href="#xroad" width="50" height="50" x="300" y="250"></use></svg>